<svg xmlns="http://www.w3.org/2000/svg" width="47.946" height="45.597" viewBox="0 0 47.946 45.597">
  <g id="left" transform="translate(47.946 45.597) rotate(180)">
    <g id="Group_12" data-name="Group 12">
      <g id="Group_11" data-name="Group 11">
        <path id="Path_2" data-name="Path 2" d="M23.973,0C10.754,0,0,10.228,0,22.8S10.754,45.6,23.973,45.6,47.946,35.37,47.946,22.8,37.191,0,23.973,0Zm0,43.7C11.856,43.7,2,34.322,2,22.8S11.856,1.9,23.973,1.9s21.975,9.375,21.975,20.9S36.09,43.7,23.973,43.7Z" fill="#fff"/>
        <path id="Path_3" data-name="Path 3" d="M26.969,8.55H3.41l7.285-6.928a.917.917,0,0,0,0-1.343,1.035,1.035,0,0,0-1.412,0L.293,8.828a.917.917,0,0,0,0,1.343l8.99,8.549a1.035,1.035,0,0,0,1.413,0,.917.917,0,0,0,0-1.343L3.41,10.449H26.969a.951.951,0,1,0,0-1.9Z" transform="translate(9.989 13.299)" fill="#fff"/>
      </g>
    </g>
  </g>
</svg>
