<svg xmlns="http://www.w3.org/2000/svg" width="26" height="26" viewBox="0 0 26 26">
  <g id="left" transform="translate(26 26) rotate(180)">
    <g id="Group_12" data-name="Group 12">
      <g id="Group_11" data-name="Group 11">
        <path id="Path_2" data-name="Path 2" d="M13,0A13,13,0,1,0,26,13,13.015,13.015,0,0,0,13,0Zm0,24.917A11.917,11.917,0,1,1,24.917,13,11.93,11.93,0,0,1,13,24.917Z" fill="#28202e"/>
        <path id="Path_3" data-name="Path 3" d="M14.625,4.875H1.849L5.8.925A.542.542,0,0,0,5.034.159L.159,5.034a.541.541,0,0,0,0,.766l4.875,4.875A.542.542,0,1,0,5.8,9.909l-3.95-3.95H14.625a.542.542,0,1,0,0-1.083Z" transform="translate(5.417 7.583)" fill="#28202e"/>
      </g>
    </g>
  </g>
</svg>
