<svg xmlns="http://www.w3.org/2000/svg" width="47.946" height="47.946" viewBox="0 0 47.946 47.946">
  <g id="left" transform="translate(0 0)">
    <g id="Group_12" data-name="Group 12">
      <g id="Group_11" data-name="Group 11">
        <path id="Path_2" data-name="Path 2" d="M23.973,0A23.973,23.973,0,1,0,47.946,23.973,24,24,0,0,0,23.973,0Zm0,45.948A21.975,21.975,0,1,1,45.948,23.973,22,22,0,0,1,23.973,45.948Z"/>
        <path id="Path_3" data-name="Path 3" d="M133.636,158.323H110.077l7.285-7.285a1,1,0,0,0-1.412-1.412l-8.99,8.99a1,1,0,0,0,0,1.412l8.99,8.99a1,1,0,0,0,1.413-1.412l-7.285-7.285h23.559a1,1,0,1,0,0-2Z" transform="translate(-96.678 -135.349)"/>
      </g>
    </g>
  </g>
</svg>
