<svg xmlns="http://www.w3.org/2000/svg" width="59.127" height="59.127" viewBox="0 0 59.127 59.127">
  <g id="data_1_" data-name="data(1)" transform="translate(0)">
    <path id="Path_65" data-name="Path 65" d="M184.176,417.711H200.7v6.845H184.176Zm0,0" transform="translate(-162.907 -369.419)" fill="#5a5a5a"/>
    <path id="Path_66" data-name="Path 66" d="M56.027,49.251h-53A3.034,3.034,0,0,1,0,46.215V3.035A3.033,3.033,0,0,1,3.032,0h53a3.034,3.034,0,0,1,3.032,3.035v43.18A3.034,3.034,0,0,1,56.027,49.251Zm0,0" transform="translate(0 0)" fill="#ffd86e"/>
    <path id="Path_67" data-name="Path 67" d="M459.825,3.039v43.18a3.034,3.034,0,0,1-3.032,3.035h-3.7a3.034,3.034,0,0,0,3.032-3.035V3.039A3.034,3.034,0,0,0,453.09,0h3.7A3.034,3.034,0,0,1,459.825,3.039Zm0,0" transform="translate(-400.766 -0.003)" fill="#ffb509"/>
    <path id="Path_68" data-name="Path 68" d="M59.059,362.754H0v4.277a3.033,3.033,0,0,0,3.032,3.035h53a3.033,3.033,0,0,0,3.032-3.035Zm0,0" transform="translate(0 -320.816)" fill="#838383"/>
    <path id="Path_69" data-name="Path 69" d="M459.825,362.75v4.278a3.034,3.034,0,0,1-3.032,3.035h-3.7a3.033,3.033,0,0,0,3.032-3.035V362.75Zm0,0" transform="translate(-400.766 -320.812)" fill="#5a5a5a"/>
    <path id="Path_70" data-name="Path 70" d="M59.631,10.354H.57V3.035A3.033,3.033,0,0,1,3.6,0h53a3.033,3.033,0,0,1,3.032,3.035Zm0,0" transform="translate(-0.504 0)" fill="#acacac"/>
    <path id="Path_71" data-name="Path 71" d="M459.889,3.038v7.32h-3.771V3.038A3.033,3.033,0,0,0,453.086,0h3.772A3.033,3.033,0,0,1,459.889,3.038Zm0,0" transform="translate(-400.762 -0.003)" fill="#9c9c9c"/>
    <path id="Path_72" data-name="Path 72" d="M160.494,474.019H133.266a.6.6,0,0,1-.594-.595V471.5a2.366,2.366,0,0,1,2.365-2.367h23.687a2.366,2.366,0,0,1,2.365,2.367v1.928A.6.6,0,0,1,160.494,474.019Zm0,0" transform="translate(-117.351 -414.892)" fill="#838383"/>
    <path id="Path_73" data-name="Path 73" d="M340.013,471.5v1.929a.6.6,0,0,1-.595.595h-2.1V471.5a2.366,2.366,0,0,0-2.364-2.367h2.692A2.365,2.365,0,0,1,340.013,471.5Zm0,0" transform="translate(-296.275 -414.892)" fill="#5a5a5a"/>
    <g id="Group_39" data-name="Group 39" transform="translate(3.092 14.23)">
      <path id="Path_74" data-name="Path 74" d="M30.436,130.422a.863.863,0,0,1-.613-.254l-2.795-2.8a.867.867,0,0,1,0-1.226l2.795-2.8a.867.867,0,0,1,1.225,1.226l-2.182,2.185,2.182,2.185a.867.867,0,0,1-.613,1.48Zm0,0" transform="translate(-26.775 -123.091)" fill="#838383"/>
      <path id="Path_75" data-name="Path 75" d="M109.7,130.422a.867.867,0,0,1-.613-1.48l2.182-2.185-2.182-2.185a.867.867,0,1,1,1.225-1.226l2.795,2.8a.867.867,0,0,1,0,1.226l-2.795,2.8A.863.863,0,0,1,109.7,130.422Zm0,0" transform="translate(-99.358 -123.091)" fill="#838383"/>
      <path id="Path_76" data-name="Path 76" d="M72.087,130.419a.868.868,0,0,1-.806-1.185l2.2-5.6a.866.866,0,1,1,1.612.635l-2.2,5.6A.866.866,0,0,1,72.087,130.419Zm0,0" transform="translate(-66.088 -123.088)" fill="#838383"/>
      <path id="Path_77" data-name="Path 77" d="M38.016,218.515H32.011a.867.867,0,0,1,0-1.734h6.005a.867.867,0,0,1,0,1.734Zm0,0" transform="translate(-30.64 -205.949)" fill="#838383"/>
      <path id="Path_78" data-name="Path 78" d="M122.916,218.515H112.358a.867.867,0,0,1,0-1.734h10.558a.867.867,0,0,1,0,1.734Zm0,0" transform="translate(-101.709 -205.949)" fill="#838383"/>
      <path id="Path_79" data-name="Path 79" d="M34.569,251.07H32.011a.867.867,0,0,1,0-1.734h2.558a.867.867,0,0,1,0,1.734Zm0,0" transform="translate(-30.64 -234.74)" fill="#838383"/>
      <path id="Path_80" data-name="Path 80" d="M177.1,251.07h-1.558a.867.867,0,0,1,0-1.734H177.1a.867.867,0,0,1,0,1.734Zm0,0" transform="translate(-157.596 -234.74)" fill="#838383"/>
      <path id="Path_81" data-name="Path 81" d="M88.9,251.07H81.249a.867.867,0,0,1,0-1.734H88.9a.867.867,0,0,1,0,1.734Zm0,0" transform="translate(-74.192 -234.74)" fill="#838383"/>
      <path id="Path_82" data-name="Path 82" d="M216.429,251.07h-2.918a.867.867,0,0,1,0-1.734h2.918a.867.867,0,0,1,0,1.734Zm0,0" transform="translate(-191.18 -234.74)" fill="#838383"/>
      <path id="Path_83" data-name="Path 83" d="M166.831,147.5h-3.078a.867.867,0,0,1,0-1.734h3.078a.867.867,0,0,1,0,1.734Zm0,0" transform="translate(-147.168 -143.14)" fill="#838383"/>
      <path id="Path_84" data-name="Path 84" d="M239.032,147.5H220.253a.867.867,0,0,1,0-1.734h18.779a.867.867,0,0,1,0,1.734Zm0,0" transform="translate(-197.144 -143.14)" fill="#838383"/>
      <path id="Path_85" data-name="Path 85" d="M299.906,181.461H292.3a.867.867,0,0,1,0-1.734h7.607a.867.867,0,0,1,0,1.734Zm0,0" transform="translate(-260.87 -173.179)" fill="#838383"/>
      <path id="Path_86" data-name="Path 86" d="M247.567,181.461h-2.615a.867.867,0,0,1,0-1.734h2.615a.867.867,0,0,1,0,1.734Zm0,0" transform="translate(-218.99 -173.179)" fill="#838383"/>
      <path id="Path_87" data-name="Path 87" d="M170.156,181.461h-6.407a.867.867,0,0,1,0-1.734h6.407a.867.867,0,0,1,0,1.734Zm0,0" transform="translate(-147.165 -173.179)" fill="#838383"/>
      <path id="Path_88" data-name="Path 88" d="M101.609,283.355H95.6a.867.867,0,0,1,0-1.734h6.005a.867.867,0,0,1,0,1.734Zm0,0" transform="translate(-86.89 -263.293)" fill="#838383"/>
      <path id="Path_89" data-name="Path 89" d="M36.625,283.355H32.011a.867.867,0,0,1,0-1.734h4.614a.867.867,0,0,1,0,1.734Zm0,0" transform="translate(-30.64 -263.293)" fill="#838383"/>
      <path id="Path_90" data-name="Path 90" d="M181.785,283.355H173.94a.867.867,0,0,1,0-1.734h7.844a.867.867,0,0,1,0,1.734Zm0,0" transform="translate(-156.179 -263.293)" fill="#838383"/>
    </g>
    <path id="Path_91" data-name="Path 91" d="M296.664,263.391h19.3v6.544h-19.3Zm0,0" transform="translate(-262.405 -232.94)" fill="#64dcfc"/>
    <path id="Path_92" data-name="Path 92" d="M296.664,350.871h19.3v6.069h-19.3Zm0,0" transform="translate(-262.405 -310.307)" fill="#64dcfc"/>
    <path id="Path_93" data-name="Path 93" d="M444.051,263.391h2.283v6.544h-2.283Zm0,0" transform="translate(-392.771 -232.94)" fill="#00d1fc"/>
    <path id="Path_94" data-name="Path 94" d="M444.051,350.871h2.283v6.069h-2.283Zm0,0" transform="translate(-392.771 -310.307)" fill="#00d1fc"/>
    <path id="Path_95" data-name="Path 95" d="M298.725,229.312h-22.5a.862.862,0,0,1-.862-.863v-4.337a.862.862,0,0,1,.862-.863h22.5a.862.862,0,0,1,.862.863v4.337A.862.862,0,0,1,298.725,229.312Zm0,0" transform="translate(-243.564 -197.44)" fill="#0396fd"/>
    <path id="Path_96" data-name="Path 96" d="M298.725,313.433h-22.5a.862.862,0,0,1-.862-.863v-4.337a.862.862,0,0,1,.862-.863h22.5a.862.862,0,0,1,.862.863v4.337A.862.862,0,0,1,298.725,313.433Zm0,0" transform="translate(-243.564 -271.836)" fill="#0396fd"/>
    <path id="Path_97" data-name="Path 97" d="M298.725,397.555h-22.5a.862.862,0,0,1-.862-.863v-4.337a.862.862,0,0,1,.862-.863h22.5a.862.862,0,0,1,.862.863v4.337A.862.862,0,0,1,298.725,397.555Zm0,0" transform="translate(-243.564 -346.231)" fill="#0396fd"/>
    <path id="Path_98" data-name="Path 98" d="M463.2,224.113v4.337a.862.862,0,0,1-.862.863h-2a.862.862,0,0,0,.862-.863v-4.337a.862.862,0,0,0-.862-.863h2A.862.862,0,0,1,463.2,224.113Zm0,0" transform="translate(-407.182 -197.44)" fill="#0077f0"/>
    <path id="Path_99" data-name="Path 99" d="M463.2,308.23v4.337a.862.862,0,0,1-.862.863h-2a.861.861,0,0,0,.862-.863V308.23a.862.862,0,0,0-.862-.863h2A.862.862,0,0,1,463.2,308.23Zm0,0" transform="translate(-407.182 -271.832)" fill="#0077f0"/>
    <path id="Path_100" data-name="Path 100" d="M463.2,392.359V396.7a.862.862,0,0,1-.862.863h-2a.862.862,0,0,0,.862-.863v-4.337a.861.861,0,0,0-.862-.863h2A.861.861,0,0,1,463.2,392.359Zm0,0" transform="translate(-407.182 -346.235)" fill="#0077f0"/>
    <path id="Path_101" data-name="Path 101" d="M300.874,243.7h-4.29a.867.867,0,0,1,0-1.734h4.29a.867.867,0,0,1,0,1.734Zm0,0" transform="translate(-261.568 -213.995)" fill="#e7e7e7"/>
    <path id="Path_102" data-name="Path 102" d="M404.243,243.7h-6.056a.867.867,0,0,1,0-1.734h6.056a.867.867,0,0,1,0,1.734Zm0,0" transform="translate(-351.437 -213.995)" fill="#e7e7e7"/>
    <path id="Path_103" data-name="Path 103" d="M361.336,243.7h-1.388a.867.867,0,0,1,0-1.734h1.388a.867.867,0,0,1,0,1.734Zm0,0" transform="translate(-317.614 -213.995)" fill="#e7e7e7"/>
    <path id="Path_104" data-name="Path 104" d="M300.874,327.824h-4.29a.867.867,0,0,1,0-1.734h4.29a.867.867,0,0,1,0,1.734Zm0,0" transform="translate(-261.568 -288.39)" fill="#e7e7e7"/>
    <path id="Path_105" data-name="Path 105" d="M404.243,327.824h-6.056a.867.867,0,0,1,0-1.734h6.056a.867.867,0,0,1,0,1.734Zm0,0" transform="translate(-351.437 -288.39)" fill="#e7e7e7"/>
    <path id="Path_106" data-name="Path 106" d="M361.336,327.824h-1.388a.867.867,0,0,1,0-1.734h1.388a.867.867,0,0,1,0,1.734Zm0,0" transform="translate(-317.614 -288.39)" fill="#e7e7e7"/>
    <path id="Path_107" data-name="Path 107" d="M300.874,411.945h-4.29a.867.867,0,0,1,0-1.734h4.29a.867.867,0,0,1,0,1.734Zm0,0" transform="translate(-261.568 -362.786)" fill="#e7e7e7"/>
    <path id="Path_108" data-name="Path 108" d="M404.243,411.945h-6.056a.867.867,0,0,1,0-1.734h6.056a.867.867,0,0,1,0,1.734Zm0,0" transform="translate(-351.437 -362.786)" fill="#e7e7e7"/>
    <path id="Path_109" data-name="Path 109" d="M361.336,411.945h-1.388a.867.867,0,0,1,0-1.734h1.388a.867.867,0,0,1,0,1.734Zm0,0" transform="translate(-317.614 -362.786)" fill="#e7e7e7"/>
    <path id="Path_110" data-name="Path 110" d="M37.723,31.355A1.725,1.725,0,1,1,36,29.629,1.725,1.725,0,0,1,37.723,31.355Zm0,0" transform="translate(-30.315 -26.203)" fill="#ff5770"/>
    <path id="Path_111" data-name="Path 111" d="M95.4,31.355a1.725,1.725,0,1,1-1.725-1.726A1.725,1.725,0,0,1,95.4,31.355Zm0,0" transform="translate(-81.331 -26.203)" fill="#ffd86e"/>
    <path id="Path_112" data-name="Path 112" d="M153.074,31.355a1.725,1.725,0,1,1-1.725-1.726A1.725,1.725,0,0,1,153.074,31.355Zm0,0" transform="translate(-132.346 -26.203)" fill="#80e0dc"/>
    <path id="Path_113" data-name="Path 113" d="M41.823,31.359a1.723,1.723,0,0,1-2.913,1.248,1.725,1.725,0,0,0,1.149-2.973H40.1A1.724,1.724,0,0,1,41.823,31.359Zm0,0" transform="translate(-34.417 -26.207)" fill="#ff435f"/>
    <path id="Path_114" data-name="Path 114" d="M99.492,31.359a1.724,1.724,0,0,1-2.914,1.248,1.725,1.725,0,0,0,1.151-2.973h.039A1.724,1.724,0,0,1,99.492,31.359Zm0,0" transform="translate(-85.425 -26.207)" fill="#ffb509"/>
    <path id="Path_115" data-name="Path 115" d="M157.168,31.359a1.724,1.724,0,0,1-2.915,1.248,1.725,1.725,0,0,0,1.149-2.973h.041A1.725,1.725,0,0,1,157.168,31.359Zm0,0" transform="translate(-136.44 -26.207)" fill="#00a8b0"/>
  </g>
</svg>
