<svg xmlns="http://www.w3.org/2000/svg" width="46.691" height="40.474" viewBox="0 0 46.691 40.474">
  <g id="Group_130" data-name="Group 130" transform="translate(-152.627 -409.517)">
    <g id="Group_128" data-name="Group 128" transform="translate(152.628 409.507)">
      <g id="Polygon_2" data-name="Polygon 2" transform="matrix(1, -0.017, 0.017, 1, 0, 0.812)" fill="none">
        <path d="M27.59,0A12,12,0,0,1,37.972,5.981l4.544,7.838a12,12,0,0,1,0,12.037L37.972,33.7A12,12,0,0,1,27.59,39.677H18.415A12,12,0,0,1,8.034,33.7L3.489,25.857a12,12,0,0,1,0-12.037L8.034,5.981A12,12,0,0,1,18.415,0Z" stroke="none"/>
        <path d="M 18.41522026062012 1.499996185302734 C 14.68370056152344 1.499996185302734 11.20299911499023 3.505416870117188 9.331432342529297 6.733646392822266 L 4.787052154541016 14.57211685180664 C 2.903770446777344 17.82052612304688 2.903770446777344 21.85642623901367 4.787052154541016 25.10482597351074 L 9.3314208984375 32.94330596923828 C 11.2029914855957 36.17153549194336 14.68370056152344 38.17695617675781 18.41522026062012 38.17695617675781 L 27.59042167663574 38.17695617675781 C 31.32194137573242 38.17694473266602 34.80265045166016 36.17153549194336 36.67422103881836 32.94331741333008 L 41.21858978271484 25.10483551025391 C 43.10187149047852 21.85642623901367 43.10187149047852 17.82052612304688 41.21858978271484 14.57211685180664 L 36.67422103881836 6.733646392822266 C 34.80265045166016 3.505416870117188 31.32194137573242 1.499996185302734 27.59042167663574 1.499996185302734 L 18.41522026062012 1.499996185302734 M 18.41522026062012 -3.814697265625e-06 L 27.59042167663574 -3.814697265625e-06 C 31.86989212036133 -3.814697265625e-06 35.82550048828125 2.279026031494141 37.9719123840332 5.981307983398438 L 42.51628112792969 13.81977653503418 C 44.67430114746094 17.54208564758301 44.67430114746094 22.13486671447754 42.51628112792969 25.85717582702637 L 37.9719123840332 33.69565582275391 C 35.82550048828125 37.39792633056641 31.86989212036133 39.67694473266602 27.59042167663574 39.67695617675781 L 18.41522026062012 39.67695617675781 C 14.13575172424316 39.67695617675781 10.18013000488281 37.39791488647461 8.033729553222656 33.69564819335938 L 3.489360809326172 25.8571662902832 C 1.331340789794922 22.13486671447754 1.331340789794922 17.54208564758301 3.489360809326172 13.81977653503418 L 8.033740997314453 5.981307983398438 C 10.18014144897461 2.279026031494141 14.13575172424316 -3.814697265625e-06 18.41522026062012 -3.814697265625e-06 Z" stroke="none" fill="#fff"/>
      </g>
      <g id="file" transform="translate(14.372 8.436)">
        <g id="Group_119" data-name="Group 119">
          <g id="Group_118" data-name="Group 118">
            <path id="Path_172" data-name="Path 172" d="M82.474,4.976a.575.575,0,0,0-.167-.4L77.9.169h0A.573.573,0,0,0,77.493,0H65.252A1.213,1.213,0,0,0,64.04,1.212V23.374a1.213,1.213,0,0,0,1.212,1.212H81.264a1.213,1.213,0,0,0,1.212-1.212V4.982A.041.041,0,0,0,82.474,4.976ZM78.069,1.965,80.51,4.407H78.13a.061.061,0,0,1-.061-.061Zm3.255,21.409a.061.061,0,0,1-.061.061H65.252a.061.061,0,0,1-.061-.061V1.212a.061.061,0,0,1,.061-.061H76.918V4.346A1.213,1.213,0,0,0,78.13,5.558h3.195V23.374Z" transform="translate(-64.04 0)" fill="#fff"/>
          </g>
        </g>
        <g id="Group_121" data-name="Group 121" transform="translate(3.548 7.876)">
          <g id="Group_120" data-name="Group 120">
            <path id="Path_173" data-name="Path 173" d="M148.688,164.014H138.5a.576.576,0,1,0,0,1.151h10.189a.576.576,0,0,0,0-1.151Z" transform="translate(-137.924 -164.014)" fill="#fff"/>
          </g>
        </g>
        <g id="Group_123" data-name="Group 123" transform="translate(3.548 11.35)">
          <g id="Group_122" data-name="Group 122">
            <path id="Path_174" data-name="Path 174" d="M148.688,236.353H138.5a.576.576,0,0,0,0,1.151h10.189a.576.576,0,0,0,0-1.151Z" transform="translate(-137.924 -236.353)" fill="#fff"/>
          </g>
        </g>
        <g id="Group_125" data-name="Group 125" transform="translate(3.548 14.823)">
          <g id="Group_124" data-name="Group 124">
            <path id="Path_175" data-name="Path 175" d="M148.688,308.691H138.5a.576.576,0,1,0,0,1.151h10.189a.576.576,0,0,0,0-1.151Z" transform="translate(-137.924 -308.691)" fill="#fff"/>
          </g>
        </g>
        <g id="Group_127" data-name="Group 127" transform="translate(3.548 18.297)">
          <g id="Group_126" data-name="Group 126">
            <path id="Path_176" data-name="Path 176" d="M143.594,381.031H138.5a.576.576,0,1,0,0,1.151h5.094a.576.576,0,1,0,0-1.151Z" transform="translate(-137.924 -381.031)" fill="#fff"/>
          </g>
        </g>
      </g>
    </g>
    <text id="cv" transform="translate(170 424.122)" fill="#fff" font-size="6" font-family="Montserrat-BlackItalic, Montserrat Black" font-weight="800" font-style="italic"><tspan x="0" y="0">cv</tspan></text>
  </g>
</svg>
