<svg xmlns="http://www.w3.org/2000/svg" width="40" height="39.01" viewBox="0 0 40 39.01">
  <path id="github" d="M20,.3a20,20,0,0,0-6.325,38.975c1,.188,1.367-.43,1.367-.962,0-.475-.017-1.733-.025-3.4C9.453,36.117,8.28,32.227,8.28,32.227A5.3,5.3,0,0,0,6.055,29.3c-1.812-1.24.14-1.215.14-1.215a4.194,4.194,0,0,1,3.063,2.06c1.783,3.058,4.682,2.175,5.825,1.663a4.264,4.264,0,0,1,1.267-2.675c-4.442-.5-9.11-2.22-9.11-9.883A7.716,7.716,0,0,1,9.3,13.885a7.111,7.111,0,0,1,.175-5.293s1.675-.537,5.5,2.05a18.856,18.856,0,0,1,10,0c3.8-2.587,5.475-2.05,5.475-2.05a7.308,7.308,0,0,1,.2,5.293,7.747,7.747,0,0,1,2.05,5.367c0,7.683-4.675,9.375-9.125,9.867a4.788,4.788,0,0,1,1.35,3.7c0,2.677-.025,4.827-.025,5.477,0,.525.35,1.15,1.375.95A19.975,19.975,0,0,0,20,.3" transform="translate(0 -0.297)" fill="#232b34"/>
</svg>
