<svg xmlns="http://www.w3.org/2000/svg" width="27" height="26.331" viewBox="0 0 27 26.331">
  <defs>
    <style>
      .cls-1 {
        fill: #424e5c;
      }
    </style>
  </defs>
  <path id="github" class="cls-1" d="M13.5.3A13.5,13.5,0,0,0,9.231,26.605c.675.127.922-.29.922-.649,0-.321-.011-1.17-.017-2.295-3.755.814-4.547-1.811-4.547-1.811a3.578,3.578,0,0,0-1.5-1.974c-1.223-.837.095-.82.095-.82a2.831,2.831,0,0,1,2.068,1.39,2.877,2.877,0,0,0,3.932,1.123,2.878,2.878,0,0,1,.855-1.806c-3-.337-6.149-1.5-6.149-6.671A5.208,5.208,0,0,1,6.276,9.469,4.8,4.8,0,0,1,6.395,5.9s1.131-.362,3.712,1.384a12.728,12.728,0,0,1,6.75,0c2.565-1.746,3.7-1.384,3.7-1.384a4.933,4.933,0,0,1,.135,3.573,5.23,5.23,0,0,1,1.384,3.623c0,5.186-3.156,6.328-6.159,6.66a3.232,3.232,0,0,1,.911,2.5c0,1.807-.017,3.258-.017,3.7,0,.354.236.776.928.641A13.483,13.483,0,0,0,13.5.3" transform="translate(0 -0.297)"/>
</svg>
