<svg xmlns="http://www.w3.org/2000/svg" width="27" height="27" viewBox="0 0 27 27">
  <path id="linkedin" d="M23,23.008H19V16.743c0-1.494-.03-3.417-2.083-3.417-2.085,0-2.4,1.626-2.4,3.306v6.375h-4V10.125h3.841v1.756h.052A4.213,4.213,0,0,1,18.2,9.8c4.051,0,4.8,2.666,4.8,6.137v7.072ZM6,8.362A2.322,2.322,0,1,1,8.326,6.039,2.32,2.32,0,0,1,6,8.362Zm2,14.646H4V10.125h4.01ZM25,0H1.992A1.968,1.968,0,0,0,0,1.945v23.11A1.968,1.968,0,0,0,1.992,27H25a1.975,1.975,0,0,0,2-1.945V1.945A1.976,1.976,0,0,0,25,0Z" transform="translate(0 0)" fill="#fff"/>
</svg>
