<svg xmlns="http://www.w3.org/2000/svg" width="40" height="40" viewBox="0 0 40 40">
  <path id="linkedin" d="M34.078,34.087H28.155V24.805c0-2.213-.045-5.062-3.087-5.062-3.088,0-3.56,2.408-3.56,4.9v9.445H15.585V15h5.69v2.6h.077a6.242,6.242,0,0,1,5.617-3.083c6,0,7.112,3.95,7.112,9.092V34.087ZM8.895,12.388a3.44,3.44,0,1,1,3.44-3.442A3.437,3.437,0,0,1,8.895,12.388Zm2.97,21.7H5.925V15h5.94ZM37.042,0H2.952A2.916,2.916,0,0,0,0,2.882V37.118A2.915,2.915,0,0,0,2.952,40H37.037A2.926,2.926,0,0,0,40,37.118V2.882A2.927,2.927,0,0,0,37.037,0Z" fill="#5d7796"/>
</svg>
