<svg height="512pt" viewBox="0 0 512 512" width="512pt" xmlns="http://www.w3.org/2000/svg"><path d="m497 512h-482c-8.285156 0-15-6.714844-15-15v-482c0-8.285156 6.714844-15 15-15h482c8.285156 0 15 6.714844 15 15v482c0 8.285156-6.714844 15-15 15zm0 0" fill="#e8edf5"/><path d="m497 0h-241v512h241c8.285156 0 15-6.714844 15-15v-482c0-8.285156-6.714844-15-15-15zm0 0" fill="#ccd3e2"/><path d="m497 415c-8.285156 0-15 6.714844-15 15v52h-211v-30h166c8.285156 0 15-6.714844 15-15v-362c0-8.285156-6.714844-15-15-15h-65c-8.285156 0-15 6.714844-15 15s6.714844 15 15 15h50v101h-30v-56c0-8.285156-6.714844-15-15-15h-242c-8.285156 0-15 6.714844-15 15v45c0 8.285156 6.714844 15 15 15s15-6.714844 15-15v-30h91v106c0 8.285156 6.714844 15 15 15s15-6.714844 15-15v-106h91v110c0 8.285156 6.714844 15 15 15s15-6.714844 15-15v-39h30v201h-216.277344c-8.285156 0-15 6.714844-15 15s6.714844 15 15 15h35.277344v30h-211v-322c0-8.285156-6.714844-15-15-15s-15 6.714844-15 15v337c0 8.285156 6.714844 15 15 15h482c8.285156 0 15-6.714844 15-15v-67c0-8.285156-6.714844-15-15-15zm0 0" fill="#656e73"/><path d="m497 0h-482c-8.285156 0-15 6.714844-15 15v75c0 8.285156 6.714844 15 15 15s15-6.714844 15-15v-60h257v30h-212c-8.285156 0-15 6.714844-15 15v362c0 8.285156 6.714844 15 15 15h60.332031c8.285157 0 15-6.714844 15-15s-6.714843-15-15-15h-45.332031v-157h30v112c0 8.285156 6.714844 15 15 15h242c8.285156 0 15-6.714844 15-15v-47c0-8.285156-6.714844-15-15-15s-15 6.714844-15 15v32h-212v-51h30v6c0 8.285156 6.714844 15 15 15h57c8.285156 0 15-6.714844 15-15s-6.714844-15-15-15h-42v-107c0-8.285156-6.714844-15-15-15s-15 6.714844-15 15v86h-30v-31c0-8.285156-6.714844-15-15-15h-45v-145h212c8.285156 0 15-6.714844 15-15v-45h165v330c0 8.285156 6.714844 15 15 15s15-6.714844 15-15v-345c0-8.285156-6.714844-15-15-15zm0 0" fill="#656e73"/><g fill="#525c5c"><path d="m302 195v122c0 8.285156 6.714844 15 15 15s15-6.714844 15-15v-122c0-8.285156-6.714844-15-15-15s-15 6.714844-15 15zm0 0"/><path d="m377 315c-8.285156 0-15 6.714844-15 15v32h-106v30h121c8.285156 0 15-6.714844 15-15v-47c0-8.285156-6.714844-15-15-15zm0 0"/><path d="m497 0h-241v30h31v30h-31v30h46c8.285156 0 15-6.714844 15-15v-45h165v330c0 8.285156 6.714844 15 15 15s15-6.714844 15-15v-345c0-8.285156-6.714844-15-15-15zm0 0"/><path d="m256 302.554688v28.890624c6.339844-1.753906 11-7.546874 11-14.445312s-4.660156-12.691406-11-14.445312zm0 0"/><path d="m497 415c-8.285156 0-15 6.714844-15 15v52h-211v-30h166c8.285156 0 15-6.714844 15-15v-362c0-8.285156-6.714844-15-15-15h-65c-8.285156 0-15 6.714844-15 15s6.714844 15 15 15h50v101h-30v-56c0-8.285156-6.714844-15-15-15h-121v151c8.285156 0 15-6.714844 15-15v-106h91v110c0 8.285156 6.714844 15 15 15s15-6.714844 15-15v-39h30v201h-166v90h241c8.285156 0 15-6.714844 15-15v-67c0-8.285156-6.714844-15-15-15zm0 0"/></g></svg>