<svg xmlns="http://www.w3.org/2000/svg" width="78.59" height="78.591" viewBox="0 0 78.59 78.591">
  <g id="Group_78" data-name="Group 78" transform="translate(-1088 -304)">
    <g id="smartphone" transform="translate(1093 304)">
      <path id="Path_116" data-name="Path 116" d="M51.87,78.591H17.628A4.622,4.622,0,0,1,13,73.977V4.614A4.622,4.622,0,0,1,17.628,0h34.24A4.622,4.622,0,0,1,56.5,4.614V73.976A4.622,4.622,0,0,1,51.87,78.591Z" fill="#424a60"/>
      <rect id="Rectangle_2" data-name="Rectangle 2" width="43.498" height="54.201" transform="translate(13 8.13)" fill="#e7eced"/>
      <ellipse id="Ellipse_46" data-name="Ellipse 46" cx="4.078" cy="4.065" rx="4.078" ry="4.065" transform="translate(30.671 66.396)" fill="#262b35"/>
      <path id="Path_117" data-name="Path 117" d="M30.8,4.71H25.359a1.355,1.355,0,1,1,0-2.71H30.8a1.355,1.355,0,1,1,0,2.71Z" transform="translate(3.952 0.71)" fill="#262b35"/>
      <path id="Path_118" data-name="Path 118" d="M33.719,4.71H32.359a1.355,1.355,0,1,1,0-2.71h1.359a1.355,1.355,0,1,1,0,2.71Z" transform="translate(6.468 0.71)" fill="#262b35"/>
      <path id="Path_119" data-name="Path 119" d="M32.745,19.149H27.411A1.409,1.409,0,0,1,26,17.743V12.426a1.409,1.409,0,0,1,1.411-1.407h5.334a1.409,1.409,0,0,1,1.411,1.407v5.317A1.409,1.409,0,0,1,32.745,19.149Z" transform="translate(4.671 3.912)" fill="#3083c9"/>
      <path id="Path_120" data-name="Path 120" d="M23.745,19.149H18.411A1.409,1.409,0,0,1,17,17.743V12.426a1.409,1.409,0,0,1,1.411-1.407h5.334a1.409,1.409,0,0,1,1.411,1.407v5.317A1.409,1.409,0,0,1,23.745,19.149Z" transform="translate(1.437 3.912)" fill="#88c057"/>
      <path id="Path_121" data-name="Path 121" d="M41.745,19.149H36.411A1.409,1.409,0,0,1,35,17.743V12.426a1.409,1.409,0,0,1,1.411-1.407h5.334a1.409,1.409,0,0,1,1.411,1.407v5.317A1.409,1.409,0,0,1,41.745,19.149Z" transform="translate(7.905 3.912)" fill="#dc691d"/>
      <path id="Path_122" data-name="Path 122" d="M32.745,28.13H27.411A1.409,1.409,0,0,1,26,26.724V21.407A1.409,1.409,0,0,1,27.411,20h5.334a1.409,1.409,0,0,1,1.411,1.407v5.317A1.409,1.409,0,0,1,32.745,28.13Z" transform="translate(4.671 7.1)" fill="#ebba16"/>
      <path id="Path_123" data-name="Path 123" d="M23.745,28.13H18.411A1.409,1.409,0,0,1,17,26.724V21.407A1.409,1.409,0,0,1,18.411,20h5.334a1.409,1.409,0,0,1,1.411,1.407v5.317A1.409,1.409,0,0,1,23.745,28.13Z" transform="translate(1.437 7.1)" fill="#7383bf"/>
      <path id="Path_124" data-name="Path 124" d="M41.745,28.13H36.411A1.409,1.409,0,0,1,35,26.724V21.407A1.409,1.409,0,0,1,36.411,20h5.334a1.409,1.409,0,0,1,1.411,1.407v5.317A1.409,1.409,0,0,1,41.745,28.13Z" transform="translate(7.905 7.1)" fill="#dd352e"/>
      <path id="Path_125" data-name="Path 125" d="M32.745,37.13H27.411A1.409,1.409,0,0,1,26,35.724V30.407A1.409,1.409,0,0,1,27.411,29h5.334a1.409,1.409,0,0,1,1.411,1.407v5.317A1.409,1.409,0,0,1,32.745,37.13Z" transform="translate(4.671 10.296)" fill="#a485be"/>
      <path id="Path_126" data-name="Path 126" d="M23.745,37.13H18.411A1.409,1.409,0,0,1,17,35.724V30.407A1.409,1.409,0,0,1,18.411,29h5.334a1.409,1.409,0,0,1,1.411,1.407v5.317A1.409,1.409,0,0,1,23.745,37.13Z" transform="translate(1.437 10.296)" fill="#ea6248"/>
      <path id="Path_127" data-name="Path 127" d="M41.745,37.13H36.411A1.409,1.409,0,0,1,35,35.724V30.407A1.409,1.409,0,0,1,36.411,29h5.334a1.409,1.409,0,0,1,1.411,1.407v5.317A1.409,1.409,0,0,1,41.745,37.13Z" transform="translate(7.905 10.296)" fill="#25ae88"/>
    </g>
    <rect id="Rectangle_6" data-name="Rectangle 6" width="78.59" height="78.59" transform="translate(1088 304)" fill="#fff" opacity="0"/>
  </g>
</svg>
