<svg xmlns="http://www.w3.org/2000/svg" width="152" height="152" viewBox="0 0 152 152">
  <g id="Group_113" data-name="Group 113" transform="translate(-814 -189)">
    <g id="Group_98" data-name="Group 98" transform="translate(-291 -116)">
      <g id="smartphone" transform="translate(1126 305)">
        <path id="Path_116" data-name="Path 116" d="M88.176,152H21.952A8.939,8.939,0,0,1,13,143.077V8.923A8.939,8.939,0,0,1,21.952,0H88.174a8.94,8.94,0,0,1,8.954,8.923v134.15A8.94,8.94,0,0,1,88.176,152Z" transform="translate(0)" fill="#424a60"/>
        <rect id="Rectangle_2" data-name="Rectangle 2" width="84.128" height="104.828" transform="translate(13 15.724)" fill="#e7eced"/>
        <ellipse id="Ellipse_46" data-name="Ellipse 46" cx="7.887" cy="7.862" rx="7.887" ry="7.862" transform="translate(47.177 128.414)" fill="#262b35"/>
        <path id="Path_117" data-name="Path 117" d="M37.145,7.241H26.629a2.621,2.621,0,1,1,0-5.241H37.145a2.621,2.621,0,1,1,0,5.241Z" transform="translate(17.919 3.241)" fill="#262b35"/>
        <path id="Path_118" data-name="Path 118" d="M36.258,7.241H33.629a2.621,2.621,0,1,1,0-5.241h2.629a2.621,2.621,0,1,1,0,5.241Z" transform="translate(29.322 3.241)" fill="#262b35"/>
        <path id="Path_119" data-name="Path 119" d="M39.045,26.743H28.729A2.726,2.726,0,0,1,26,24.023V13.739a2.726,2.726,0,0,1,2.729-2.72H39.045a2.726,2.726,0,0,1,2.729,2.72V24.023A2.726,2.726,0,0,1,39.045,26.743Z" transform="translate(21.177 17.858)" fill="#3083c9"/>
        <path id="Path_120" data-name="Path 120" d="M30.045,26.743H19.729A2.726,2.726,0,0,1,17,24.023V13.739a2.726,2.726,0,0,1,2.729-2.72H30.045a2.726,2.726,0,0,1,2.729,2.72V24.023A2.726,2.726,0,0,1,30.045,26.743Z" transform="translate(6.516 17.858)" fill="#88c057"/>
        <path id="Path_121" data-name="Path 121" d="M48.045,26.743H37.729A2.726,2.726,0,0,1,35,24.023V13.739a2.726,2.726,0,0,1,2.729-2.72H48.045a2.726,2.726,0,0,1,2.729,2.72V24.023A2.726,2.726,0,0,1,48.045,26.743Z" transform="translate(35.838 17.858)" fill="#dc691d"/>
        <path id="Path_122" data-name="Path 122" d="M39.045,35.724H28.729A2.726,2.726,0,0,1,26,33V22.72A2.726,2.726,0,0,1,28.729,20H39.045a2.726,2.726,0,0,1,2.729,2.72V33A2.726,2.726,0,0,1,39.045,35.724Z" transform="translate(21.177 32.414)" fill="#ebba16"/>
        <path id="Path_123" data-name="Path 123" d="M30.045,35.724H19.729A2.726,2.726,0,0,1,17,33V22.72A2.726,2.726,0,0,1,19.729,20H30.045a2.726,2.726,0,0,1,2.729,2.72V33A2.726,2.726,0,0,1,30.045,35.724Z" transform="translate(6.516 32.414)" fill="#7383bf"/>
        <path id="Path_124" data-name="Path 124" d="M48.045,35.724H37.729A2.726,2.726,0,0,1,35,33V22.72A2.726,2.726,0,0,1,37.729,20H48.045a2.726,2.726,0,0,1,2.729,2.72V33A2.726,2.726,0,0,1,48.045,35.724Z" transform="translate(35.838 32.414)" fill="#dd352e"/>
        <path id="Path_125" data-name="Path 125" d="M39.045,44.724H28.729A2.726,2.726,0,0,1,26,42V31.72A2.726,2.726,0,0,1,28.729,29H39.045a2.726,2.726,0,0,1,2.729,2.72V42A2.726,2.726,0,0,1,39.045,44.724Z" transform="translate(21.177 47)" fill="#a485be"/>
        <path id="Path_126" data-name="Path 126" d="M30.045,44.724H19.729A2.726,2.726,0,0,1,17,42V31.72A2.726,2.726,0,0,1,19.729,29H30.045a2.726,2.726,0,0,1,2.729,2.72V42A2.726,2.726,0,0,1,30.045,44.724Z" transform="translate(6.516 47)" fill="#ea6248"/>
        <path id="Path_127" data-name="Path 127" d="M48.045,44.724H37.729A2.726,2.726,0,0,1,35,42V31.72A2.726,2.726,0,0,1,37.729,29H48.045a2.726,2.726,0,0,1,2.729,2.72V42A2.726,2.726,0,0,1,48.045,44.724Z" transform="translate(35.838 47)" fill="#25ae88"/>
      </g>
    </g>
    <rect id="Rectangle_30" data-name="Rectangle 30" width="152" height="152" transform="translate(814 189)" fill="none"/>
  </g>
</svg>
