<svg xmlns="http://www.w3.org/2000/svg" width="58.099" height="58.099" viewBox="0 0 58.099 58.099">
  <g id="server_1_" data-name="server(1)" transform="translate(0 0)">
    <g id="Group_33" data-name="Group 33" transform="translate(0)">
      <path id="Path_46" data-name="Path 46" d="M54.984,18.71H4.114A3.585,3.585,0,0,1,.5,15.157V3.553A3.585,3.585,0,0,1,4.114,0H54.983A3.585,3.585,0,0,1,58.6,3.553v11.6A3.585,3.585,0,0,1,54.984,18.71Z" transform="translate(-0.5)" fill="#556080"/>
      <path id="Path_47" data-name="Path 47" d="M54.984,37.71H4.114A3.585,3.585,0,0,1,.5,34.157v-11.6A3.585,3.585,0,0,1,4.114,19H54.983A3.584,3.584,0,0,1,58.6,22.553v11.6A3.583,3.583,0,0,1,54.984,37.71Z" transform="translate(-0.5 -0.29)" fill="#38454f"/>
      <path id="Path_48" data-name="Path 48" d="M54.984,56.71H4.114A3.585,3.585,0,0,1,.5,53.157v-11.6A3.585,3.585,0,0,1,4.114,38H54.983A3.584,3.584,0,0,1,58.6,41.553v11.6A3.583,3.583,0,0,1,54.984,56.71Z" transform="translate(-0.5 -0.581)" fill="#556080"/>
      <ellipse id="Ellipse_12" data-name="Ellipse 12" cx="3.506" cy="3.447" rx="3.506" ry="3.447" transform="translate(6.01 5.908)" fill="#8697cb"/>
      <ellipse id="Ellipse_13" data-name="Ellipse 13" cx="1.002" cy="0.985" rx="1.002" ry="0.985" transform="translate(48.082 6.893)" fill="#8697cb"/>
      <ellipse id="Ellipse_14" data-name="Ellipse 14" cx="1.002" cy="0.985" rx="1.002" ry="0.985" transform="translate(44.075 6.893)" fill="#8697cb"/>
      <ellipse id="Ellipse_15" data-name="Ellipse 15" cx="1.002" cy="0.985" rx="1.002" ry="0.985" transform="translate(50.085 9.847)" fill="#8697cb"/>
      <ellipse id="Ellipse_16" data-name="Ellipse 16" cx="1.002" cy="0.985" rx="1.002" ry="0.985" transform="translate(46.078 9.847)" fill="#8697cb"/>
      <ellipse id="Ellipse_17" data-name="Ellipse 17" cx="1.002" cy="0.985" rx="1.002" ry="0.985" transform="translate(40.068 6.893)" fill="#8697cb"/>
      <ellipse id="Ellipse_18" data-name="Ellipse 18" cx="1.002" cy="0.985" rx="1.002" ry="0.985" transform="translate(42.071 9.847)" fill="#8697cb"/>
      <ellipse id="Ellipse_19" data-name="Ellipse 19" cx="1.002" cy="0.985" rx="1.002" ry="0.985" transform="translate(36.061 6.893)" fill="#8697cb"/>
      <ellipse id="Ellipse_20" data-name="Ellipse 20" cx="1.002" cy="0.985" rx="1.002" ry="0.985" transform="translate(38.065 9.847)" fill="#8697cb"/>
      <ellipse id="Ellipse_21" data-name="Ellipse 21" cx="1.002" cy="0.985" rx="1.002" ry="0.985" transform="translate(32.054 6.893)" fill="#8697cb"/>
      <ellipse id="Ellipse_22" data-name="Ellipse 22" cx="1.002" cy="0.985" rx="1.002" ry="0.985" transform="translate(34.058 9.847)" fill="#8697cb"/>
      <ellipse id="Ellipse_23" data-name="Ellipse 23" cx="3.506" cy="3.447" rx="3.506" ry="3.447" transform="translate(6.01 24.618)" fill="#8697cb"/>
      <ellipse id="Ellipse_24" data-name="Ellipse 24" cx="1.002" cy="0.985" rx="1.002" ry="0.985" transform="translate(48.082 25.603)" fill="#8697cb"/>
      <ellipse id="Ellipse_25" data-name="Ellipse 25" cx="1.002" cy="0.985" rx="1.002" ry="0.985" transform="translate(44.075 25.603)" fill="#8697cb"/>
      <ellipse id="Ellipse_26" data-name="Ellipse 26" cx="1.002" cy="0.985" rx="1.002" ry="0.985" transform="translate(50.085 28.557)" fill="#8697cb"/>
      <ellipse id="Ellipse_27" data-name="Ellipse 27" cx="1.002" cy="0.985" rx="1.002" ry="0.985" transform="translate(46.078 28.557)" fill="#8697cb"/>
      <ellipse id="Ellipse_28" data-name="Ellipse 28" cx="1.002" cy="0.985" rx="1.002" ry="0.985" transform="translate(40.068 25.603)" fill="#8697cb"/>
      <ellipse id="Ellipse_29" data-name="Ellipse 29" cx="1.002" cy="0.985" rx="1.002" ry="0.985" transform="translate(42.071 28.557)" fill="#8697cb"/>
      <ellipse id="Ellipse_30" data-name="Ellipse 30" cx="1.002" cy="0.985" rx="1.002" ry="0.985" transform="translate(36.061 25.603)" fill="#8697cb"/>
      <ellipse id="Ellipse_31" data-name="Ellipse 31" cx="1.002" cy="0.985" rx="1.002" ry="0.985" transform="translate(38.065 28.557)" fill="#8697cb"/>
      <ellipse id="Ellipse_32" data-name="Ellipse 32" cx="1.002" cy="0.985" rx="1.002" ry="0.985" transform="translate(32.054 25.603)" fill="#8697cb"/>
      <ellipse id="Ellipse_33" data-name="Ellipse 33" cx="1.002" cy="0.985" rx="1.002" ry="0.985" transform="translate(34.058 28.557)" fill="#8697cb"/>
      <ellipse id="Ellipse_34" data-name="Ellipse 34" cx="3.506" cy="3.447" rx="3.506" ry="3.447" transform="translate(6.01 43.328)" fill="#8697cb"/>
      <ellipse id="Ellipse_35" data-name="Ellipse 35" cx="1.002" cy="0.985" rx="1.002" ry="0.985" transform="translate(48.082 44.312)" fill="#8697cb"/>
      <ellipse id="Ellipse_36" data-name="Ellipse 36" cx="1.002" cy="0.985" rx="1.002" ry="0.985" transform="translate(44.075 44.312)" fill="#8697cb"/>
      <ellipse id="Ellipse_37" data-name="Ellipse 37" cx="1.002" cy="0.985" rx="1.002" ry="0.985" transform="translate(50.085 47.267)" fill="#8697cb"/>
      <ellipse id="Ellipse_38" data-name="Ellipse 38" cx="1.002" cy="0.985" rx="1.002" ry="0.985" transform="translate(46.078 47.267)" fill="#8697cb"/>
      <ellipse id="Ellipse_39" data-name="Ellipse 39" cx="1.002" cy="0.985" rx="1.002" ry="0.985" transform="translate(40.068 44.312)" fill="#8697cb"/>
      <ellipse id="Ellipse_40" data-name="Ellipse 40" cx="1.002" cy="0.985" rx="1.002" ry="0.985" transform="translate(42.071 47.267)" fill="#8697cb"/>
      <ellipse id="Ellipse_41" data-name="Ellipse 41" cx="1.002" cy="0.985" rx="1.002" ry="0.985" transform="translate(36.061 44.312)" fill="#8697cb"/>
      <ellipse id="Ellipse_42" data-name="Ellipse 42" cx="1.002" cy="0.985" rx="1.002" ry="0.985" transform="translate(38.065 47.267)" fill="#8697cb"/>
      <ellipse id="Ellipse_43" data-name="Ellipse 43" cx="1.002" cy="0.985" rx="1.002" ry="0.985" transform="translate(32.054 44.312)" fill="#8697cb"/>
      <ellipse id="Ellipse_44" data-name="Ellipse 44" cx="1.002" cy="0.985" rx="1.002" ry="0.985" transform="translate(34.058 47.267)" fill="#8697cb"/>
    </g>
    <g id="Group_35" data-name="Group 35" transform="translate(30.552 39.389)">
      <g id="Group_34" data-name="Group 34">
        <path id="Path_49" data-name="Path 49" d="M53.582,48a6.993,6.993,0,0,0-13.046-3.511,4.275,4.275,0,0,0-1.339-.217,4.328,4.328,0,0,0-4.215,3.431A5.281,5.281,0,0,0,37.217,57.74H48.01c.061,0,.119-.007.18-.009s.119.009.18.009h4.317A4.916,4.916,0,0,0,53.582,48Z" transform="translate(-30.998 -40.015)" fill="#48a0dc"/>
        <path id="Path_50" data-name="Path 50" d="M52.688,58.71H48.37c-.063,0-.126,0-.188-.008-.047,0-.108.008-.171.008H37.219a6.262,6.262,0,0,1-3.1-11.68A5.357,5.357,0,0,1,39.2,43.275a5.234,5.234,0,0,1,.886.075A7.991,7.991,0,0,1,54.54,47.22a5.9,5.9,0,0,1-1.852,11.49Zm-4.545-1.978.186.006,4.358,0a3.933,3.933,0,0,0,.7-7.787l-.8-.153-.011-.8a6.082,6.082,0,0,0-6.008-6.03,5.945,5.945,0,0,0-5.167,3l-.41.7-.778-.257a3.239,3.239,0,0,0-1.021-.166A3.348,3.348,0,0,0,35.962,47.9l-.1.468-.436.211A4.328,4.328,0,0,0,33,52.449a4.259,4.259,0,0,0,4.215,4.291Z" transform="translate(-31 -40)" fill="#b1d3ef"/>
      </g>
    </g>
  </g>
</svg>
